# xmcd CD database file
#
# Track frame offsets:
#	150
#	16993
#	35703
#	51411
#	65311
#	79500
#	97711
#	125246
#	139798
#	161835
#	182435
#	200457
#	222972
#	237372
#	257685
#	276750
#	296265
#	313589
#	348969
#
# Disc length: 4825 seconds
#
# Revision: 0
# Processed by: cddbd v1.4PL0 Copyright (c) Steve Scherf et al.
# Submitted via: Feurio! 1.64 - http://www.feurio.com
#
DISCID=1312d713
DTITLE=Rober Johnson - A Private Tribute
DYEAR=1900
DGENRE=blues
TTITLE0=Keb' Mo' - Last Fair Deal Gone Down
TTITLE1=Keb' Mo' - Come on in my Kitchen
TTITLE2=Keb' Mo' - Kindhearted Woman Blues
TTITLE3=Keb' Mo' - Love In Vain
TTITLE4=ZZ Top - Dust My Broom
TTITLE5=ZZ Top - Stop Breakin' Down Blues (live)
TTITLE6=The Moody Marsden Band - From Four Until Late
TTITLE7=The Moody Marsden Band - Last Fair Deal
TTITLE8=Cassandra Wilson - Come On In My Kitchen
TTITLE9=Cassandra Wilson - Hellhound On My Trail
TTITLE10=Alexis Korner - Sweet Home Chicago
TTITLE11=Alexis Korner - 32-20 Blues
TTITLE12=Alexis Korner - Hellhound On My Trail
TTITLE13=Taj Mahal - Dust My Broom
TTITLE14=Michael Katon - Walkin' Blues
TTITLE15=The Jeff Healey Band - Stop Breakin' Down
TTITLE16=LA Blues Authority - Ramblin' On My Mind
TTITLE17=The Blues Brothers - Sweet Home Chicago
TTITLE18=Elmore James - Dust My Broom
EXTD=
EXTT0=Keb' Mo'
EXTT1=Keb' Mo'
EXTT2=Keb' Mo'
EXTT3=Keb' Mo'
EXTT4=ZZ Top
EXTT5=ZZ Top
EXTT6=The Moody Marsden Band
EXTT7=The Moody Marsden Band
EXTT8=Cassandra Wilson
EXTT9=Cassandra Wilson
EXTT10=Alexis Korner
EXTT11=Alexis Korner
EXTT12=Alexis Korner
EXTT13=Taj Mahal
EXTT14=Michael Katon
EXTT15=The Jeff Healey Band
EXTT16=LA Blues Authority
EXTT17=The Blues Brothers
EXTT18=Elmore James
PLAYORDER=
